<?xml version="1.0" encoding="UTF-8"?>
<svg width="503px" height="105px" viewBox="0 0 503 105" version="1.1" xmlns="http://www.w3.org/2000/svg" xmlns:xlink="http://www.w3.org/1999/xlink">
    <!-- Generator: Sketch 48.2 (47327) - http://www.bohemiancoding.com/sketch -->
    <title>m2018-logo-lettres-glace-jaune</title>
    <desc>Created with Sketch.</desc>
    <defs></defs>
    <g id="Page-1" stroke="none" stroke-width="1" fill="none" fill-rule="evenodd">
        <g id="m2018-logo-lettres-glace-jaune" fill-rule="nonzero">
            <g id="m2018-logo-lettres" transform="translate(123.000000, 12.000000)" fill="#FCECAC">
                <path d="M78.4802917,38.1178915 C78.3807679,26.4782159 69.4417202,16.1428105 56.1202321,16.1428105 C49.3288631,16.1428105 43.2058869,18.6559996 39.3979702,20.910378 C35.5911845,18.6559996 29.4704702,16.1428105 22.6711845,16.1428105 C9.35422024,16.1428105 0.411779762,26.4782159 0.319041667,38.1178915 L0.000113095238,77.1222699 C-0.0157202381,78.9521078 1.05076786,79.9850807 2.92927976,79.9850807 L7.35469643,79.9850807 C9.23320833,79.9850807 10.3121369,78.9521078 10.3302321,77.1222699 L10.6468988,38.1178915 C10.7023155,32.0278915 15.059875,25.7994051 22.5942798,25.7994051 C27.053625,25.7994051 30.9859464,27.319351 34.1605298,29.0220537 L34.4749345,76.8986483 C34.487375,78.7216753 35.5719583,79.7614591 37.4504702,79.7614591 L41.8758869,79.7614591 C43.7543988,79.7614591 44.8208869,78.7216753 44.8016607,76.8986483 L44.4951726,29.100378 C47.6957679,27.3658915 51.6755893,25.7994051 56.2016607,25.7994051 C63.7394583,25.7994051 68.0970179,32.0278915 68.1467798,38.1178915 L68.4691012,77.1222699 C68.4815417,78.9521078 69.5604702,79.9850807 71.4378512,79.9850807 L75.8666607,79.9850807 C77.7485655,79.9850807 78.8093988,78.9521078 78.7958274,77.1222699 L78.4802917,38.1178915 Z" id="Fill-1"></path>
                <path d="M189.154048,42.8224595 C189.154048,42.8224595 178.343274,42.4228919 178.407738,34.4485676 C178.431488,31.6175405 180.909405,26.0724054 189.290893,26.0724054 C192.535595,26.0724054 195.632143,27.2926757 198.317024,29.8569459 C199.52375,30.9387297 201.142143,31.2066216 202.494762,30.2610541 L205.73381,27.9646757 C207.217619,26.8817568 207.496964,25.3947297 206.169226,23.902027 C202.714167,19.9562973 197.069583,16.5542973 189.367798,16.5542973 C182.318571,16.5542973 177.072083,18.9392162 173.596667,22.4138649 C170.111071,19.9767297 163.10369,16.5542973 155.177976,16.5542973 C141.857619,16.5542973 132.918571,26.8885676 132.825833,38.5361892 L132.502381,77.5337568 C132.487679,79.3613243 133.550774,80.4011081 135.431548,80.4011081 L139.861488,80.4011081 C141.736607,80.4011081 142.82119,79.3613243 142.833631,77.5337568 L143.15256,38.5361892 C143.205714,32.4382432 147.559881,26.2097568 155.101071,26.2097568 C160.6925,26.2097568 165.475298,28.5980811 168.943929,30.7468919 C168.655536,31.9751081 168.490417,33.2169459 168.481369,34.4485676 C168.397679,44.7204054 175.855179,51.6061351 189.077143,52.2804054 C189.077143,52.2804054 200.970238,52.2804054 200.895595,61.4693243 C200.85375,66.6024054 197.430357,72.1395946 188.912024,72.1395946 C182.558333,72.1395946 178.002857,67.8158649 175.21619,63.9019189 C174.28994,62.5511081 172.815179,62.1413243 171.3325,63.0868919 L168.228036,65.2459189 C166.602857,66.4650541 166.458095,67.9520811 167.386607,69.437973 C170.569107,74.5835405 177.214583,81.7961892 188.835119,81.7961892 C202.879286,81.7961892 211.132976,72.9546216 211.227976,61.4693243 C211.330893,48.7694324 201.042619,43.5012703 189.154048,42.8224595" id="Fill-4"></path>
                <path d="M105.755131,72.1398213 C98.2116788,72.1398213 93.9468573,65.9487942 93.9988811,59.8951186 C94.048643,53.8414429 98.4095954,47.651551 105.959834,47.651551 C113.504417,47.651551 117.762453,53.8414429 117.712691,59.8951186 C117.662929,65.9487942 113.299715,72.1398213 105.755131,72.1398213 M127.902572,76.5623078 L128.083524,63.048524 C128.084655,62.8884699 128.060905,62.7329564 128.022453,62.5797132 L128.219238,38.5477672 C128.311976,26.8887942 119.543703,16.554524 106.213167,16.554524 C100.281322,16.554524 95.284774,18.0540375 90.9679288,20.4991186 C89.7532859,21.1767942 88.5341192,22.8136591 89.4581073,24.5810645 L91.176024,27.7038213 C92.1056669,29.3270645 93.172155,30.0058753 94.9262621,29.0603078 C97.6315002,27.5653348 101.415667,26.2099834 106.132869,26.2099834 C113.676322,26.2099834 117.938881,32.4441456 117.889119,38.5477672 C117.87781,39.9053888 117.062393,40.7192807 115.989119,40.1778213 C113.168524,38.8156591 109.535905,38.0006321 106.033345,38.0006321 C92.7039407,38.0006321 83.7615002,48.3280915 83.6687621,59.8951186 C83.5726311,71.4666861 92.3442978,81.7964159 105.678226,81.7964159 C111.067215,81.7964159 114.984834,80.1584159 117.427691,78.6657132 C117.725131,78.4386861 118.105131,78.3456051 118.473822,78.4602537 C118.595965,79.4898213 119.004238,80.5454969 120.805845,80.5454969 L125.827274,80.5454969 L127.850548,80.5454969 L130.256084,80.5454969 C128.455607,80.5454969 127.996441,78.2241456 127.902572,76.5623078" id="Fill-9"></path>
                <path d="M309.836732,72.1398212 C302.288756,72.1398212 298.027328,65.9487941 298.080482,59.8951185 C298.126851,53.8414428 302.490066,47.6515509 310.03578,47.6515509 C317.579232,47.6515509 321.840661,53.8414428 321.79203,59.8951185 C321.74453,65.9487941 317.384709,72.1398212 309.836732,72.1398212 M331.981911,76.5623076 L332.161732,63.0485239 C332.163994,62.8884698 332.139113,62.7329563 332.101792,62.5797131 L332.296316,38.5477671 C332.394709,26.8887941 323.621911,16.5545239 310.292506,16.5545239 C304.362923,16.5545239 299.367506,18.0540374 295.04953,20.4991185 C293.834887,21.1767941 292.612328,22.813659 293.537447,24.5810644 L295.256494,27.7038212 C296.182744,29.3270644 297.249232,30.0058752 299.00447,29.0603076 C301.71084,27.5653347 305.496137,26.2099833 310.212209,26.2099833 C317.755661,26.2099833 322.01822,32.4441455 321.967328,38.5477671 C321.954887,39.9053887 321.13947,40.7192806 320.067328,40.1778212 C317.250125,38.815659 313.618637,38.000632 310.111554,38.000632 C296.782149,38.000632 287.84084,48.3280914 287.74697,59.8951185 C287.72322,62.8124158 288.266078,65.6502536 289.300899,68.2644698 C289.092804,68.4131725 288.880185,68.576632 288.657387,68.7661995 C286.761911,70.3849022 284.461554,72.1398212 280.422923,72.1398212 C272.885125,72.1398212 268.629351,65.9351725 268.67572,59.8644698 L268.921137,29.9184698 C268.939232,28.0284698 270.020423,26.9444158 271.909113,26.9444158 L286.714411,26.9444158 C288.595185,26.9444158 289.680899,25.8558212 289.698994,23.9521995 L289.723875,20.9577131 C289.737447,19.0620374 288.674351,17.9723076 286.785661,17.9723076 L271.982625,17.9723076 C270.098458,17.9723076 269.028578,16.8893887 269.045542,14.9982536 L269.142804,3.10884819 C269.155244,1.21771305 268.09328,0.134794135 266.215899,0.134794135 L261.785959,0.134794135 C259.909709,0.134794135 258.826256,1.21771305 258.811554,3.10884819 L258.715423,14.9982536 C258.698459,16.8893887 257.611613,17.9723076 255.725185,17.9723076 L252.768875,17.9723076 C250.881316,17.9723076 249.797863,19.0620374 249.778637,20.9577131 L249.757149,23.9521995 C249.742447,25.8558212 250.808935,26.9444158 252.695363,26.9444158 L255.655066,26.9444158 C257.539232,26.9444158 258.60572,28.0284698 258.589887,29.9184698 L258.346732,59.8644698 C258.248339,71.466686 267.021137,81.7964158 280.342625,81.7964158 C286.601316,81.7964158 291.482506,79.446686 294.905899,76.3125779 C298.668578,79.6827941 303.74203,81.7964158 309.759828,81.7964158 C315.145423,81.7964158 319.066435,80.1584158 321.501375,78.6657131 C321.802209,78.438686 322.18334,78.3456049 322.555423,78.4625239 C322.674173,79.4920914 323.083578,80.5454968 324.886316,80.5454968 L329.904351,80.5454968 L331.927625,80.5454968 L334.336554,80.5454968 C332.534947,80.5454968 332.076911,78.2241455 331.981911,76.5623076" id="Fill-12"></path>
                <path d="M231.312899,72.1398213 C223.769446,72.1398213 219.503494,65.9487942 219.553256,59.8951186 C219.603018,53.8414429 223.966232,47.651551 231.514208,47.651551 C239.057661,47.651551 243.319089,53.8414429 243.269327,59.8951186 C243.218434,65.9487942 238.860875,72.1398213 231.312899,72.1398213 M253.458077,76.5623078 L253.635637,63.048524 C253.637899,62.8907402 253.614149,62.7374969 253.577958,62.586524 L253.777006,38.5477672 C253.873137,26.8887942 245.100339,16.554524 231.768672,16.554524 C225.839089,16.554524 220.845934,18.0540375 216.526827,20.4991186 C215.313315,21.1767942 214.091887,22.8136591 215.015875,24.5810645 L216.732661,27.7038213 C217.658911,29.3270645 218.729922,30.0058753 220.482899,29.0603078 C223.185875,27.5653348 226.972303,26.2099834 231.690637,26.2099834 C239.234089,26.2099834 243.494387,32.4441456 243.449149,38.5477672 C243.435577,39.9053888 242.620161,40.7192807 241.546887,40.1778213 C238.726292,38.8156591 235.092542,38.0006321 231.589982,38.0006321 C218.258315,38.0006321 209.319268,48.3280915 209.225399,59.8951186 C209.128137,71.4666861 217.902065,81.7964159 231.235994,81.7964159 C236.623851,81.7964159 240.542601,80.1584159 242.979804,78.6657132 C243.279506,78.4386861 243.660637,78.3456051 244.031589,78.4613888 C244.153732,79.4909564 244.562006,80.5454969 246.367006,80.5454969 L251.38278,80.5454969 L253.408315,80.5454969 L255.81272,80.5454969 C254.011113,80.5454969 253.553077,78.2241456 253.458077,76.5623078" id="Fill-15"></path>
                <path d="M358.847684,81.7961888 C345.526196,81.7961888 336.757922,71.4664591 336.851792,59.8449456 L337.027089,38.5044051 C337.120958,26.8817564 346.056613,16.5542969 359.380363,16.5542969 C372.704113,16.5542969 377.87822,25.9429997 378.93453,28.3699186 C379.463815,29.5890537 379.71828,31.3439726 378.095363,32.4257564 L374.847268,34.7209996 C373.355542,35.7982429 371.875125,35.6677024 370.809768,34.043324 C369.616613,32.1521888 366.841256,26.2097564 359.303458,26.2097564 C351.762268,26.2097564 347.408101,32.4257564 347.356077,38.5044051 L347.181911,59.8449456 C347.135541,65.9247294 351.385661,72.1395942 358.927982,72.1395942 C366.458994,72.1395942 369.062446,66.6024051 370.565482,64.5727834 C371.791434,62.8178645 373.136137,62.5511078 374.610899,63.4978105 L377.687089,65.6488915 C379.429887,66.8691618 379.685482,68.2188375 378.865542,69.7069996 C377.363637,72.6810537 372.170303,81.7961888 358.847684,81.7961888" id="Fill-6"></path>
            </g>
            <g id="Page-1">
                <path d="M20.0018462,51 C19.4720824,50.0915367 19.0527455,49.3459892 18.6948098,48.5714483 C18.340682,47.804731 18.0265363,47.047218 17.7728399,46.2634728 C17.5229513,45.4797276 17.3001934,44.6766533 17.1664435,43.8165125 C17.0964747,43.3866722 17.0341216,42.9471674 17.0188903,42.4791293 C16.9927115,42.0152331 16.9827159,41.5370703 17.0636322,41 C17.5529379,41.2457545 17.9527597,41.5490359 18.3340183,41.8675043 C18.6929059,42.1979382 19.020379,42.5504625 19.3116777,42.9246169 C19.8742841,43.6816697 20.3269394,44.5082148 20.6053867,45.4014911 C20.8933536,46.289705 21.0432867,47.2313038 20.9890252,48.1945327 C20.9542788,48.6768374 20.883834,49.1596024 20.730569,49.6382254 C20.5749241,50.1104054 20.3707294,50.59225 20.0018462,51" id="Fill-1" fill="#FCB9F9"></path>
                <path d="M19.7068485,48.3453443 C19.9166715,49.9270242 19.8520753,51.4849566 19.3275179,52.773152 C19.0705077,53.4165776 18.6980491,53.9945853 18.217472,54.5026944 C18.1015655,54.6344264 17.9778707,54.7545086 17.8390577,54.8786234 C17.6965797,54.9996018 17.6228209,55.0717407 17.4198699,55.2236358 C17.1413276,55.4418449 16.8440021,55.6224162 16.5617948,55.7644538 C15.9648531,56.056146 15.3683695,56.1753321 14.6995015,56.1457596 C14.0439193,56.0969202 13.3292385,55.8872244 12.6287596,55.5520696 C11.2085606,54.8705582 9.86349461,53.7562131 8.60913815,52.5459815 C7.34653536,51.3321654 6.15952382,49.9879615 5,48.5837164 C5.26663092,49.4561048 5.62168069,50.2913035 6.01429701,51.118885 C6.40966211,51.9496031 6.86458394,52.7435795 7.37631373,53.5250101 C8.39015261,55.0632274 9.6225189,56.5445401 11.3386691,57.6951787 C12.1944536,58.2548156 13.1972974,58.7284234 14.3371217,58.916612 C15.4824435,59.1151061 16.7422975,58.9511132 17.8092793,58.5111105 C18.3503294,58.2978301 18.840069,58.0146512 19.2867445,57.697419 C19.4429664,57.5925711 19.7311294,57.3828753 19.9285828,57.2175382 C20.1370314,57.0374149 20.3450219,56.853259 20.5369778,56.669103 C21.3112154,55.8943935 21.9351867,54.9467297 22.3497932,53.9394729 C22.7506558,52.9272874 22.9426118,51.8676066 22.9925478,50.8455636 C23.0282818,49.8185918 22.9339073,48.8220886 22.7437839,47.8569502 C22.3635371,45.937875 21.6474818,44.1738314 20.7779535,42.5249413 C19.0164485,39.2410511 16.6616669,36.3649028 13.8789929,34 C15.6075126,37.1848672 17.2595249,40.3110374 18.4373738,43.5353346 C19.0242367,45.1326969 19.5011487,46.7560472 19.7068485,48.3453443 Z" id="Fill-3" fill="#440253"></path>
                <path d="M29.141089,7 L41.7298842,10.8179737 L42,11.8234561 L41.5561207,14.2709291 L39.776486,16.1788646 L37.258974,16.7537263 L36.3469215,17.2856943 L36.2604515,19.6356047 L35.8260427,22.5616385 C35.8260427,22.5616385 35.3035169,24.4275212 35.2606937,24.6028814 C35.218694,24.7782416 34.1608778,26.5074527 34.1608778,26.5074527 L32.1362447,27.9258936 L28.6197985,28.1920878 L26.1459332,27.9704696 L24.8867655,30.6303092 L24.0187715,32.7586014 L19.8945647,34 L8,29.3005996 L11.1689193,28.014625 L13.5349029,25.3766529 L15.4771835,22.4893077 L18.2285763,22.306378 L21.4135542,21.0540456 L24.1056532,18.3496301 L24.9995882,12.5892376 L26.2756382,11.8625652 L27.187279,10.4580017 L28.4464467,7.88184721 L29.141089,7 Z" id="Fill-5" fill="#FCECAC"></path>
                <path d="M45.5660196,64.2188111 C45.5660196,64.2188111 40.9144949,95.9902316 44.136886,100.010126 C47.3580141,104.025619 55.3737908,103.967525 58.8980047,100.010126 C62.4234815,96.0456845 61.9823233,88.2602758 61.9823233,81.9272046 C61.9823233,75.5936936 60.6601117,61.8875895 56.5831872,62.0006958 C52.5092093,62.1182031 45.5660196,64.2188111 45.5660196,64.2188111" id="Fill-7" fill="#FCECAC"></path>
                <path d="M76.338622,1.09330108 C63.4175672,0.373223329 58.3282195,4.05755559 58.3282195,4.05755559 C58.3282195,4.05755559 53.4482899,3.56482479 48.1982259,4.05755559 C43.680904,4.48208231 37.5750151,6.41846626 35.8540673,7.06640508 C36.3331169,7.18139017 32.1217314,6.29736029 30.8475128,6.0984317 C29.6693698,5.91436811 31.0719843,6.81544902 31.4430041,6.95098278 C33.2724243,7.61990747 41.1749704,9.63017918 41.2803436,9.79719175 C41.6066463,10.3152805 43.4976078,10.7424304 43.4041888,12.0789682 C43.3107697,13.415506 42.4947916,14.9090006 41.3038091,15.9045179 C40.1119409,16.9000352 37.0561186,16.4116765 36.9626995,17.2873995 C36.8692804,18.1631224 37.5692594,19.4161539 36.542535,21.7626368 C35.5153678,24.1091197 36.2525374,26.4827093 34.1056694,27.4047761 C31.9583587,28.3268429 30.1010456,28.1196074 29.1677403,28.165514 C28.2339922,28.2114206 25.7134479,27.3820414 25.4331906,28.4881718 C25.1533761,29.5943021 24.966538,32.7531132 23.6130681,33.2471556 C22.2591555,33.741198 17.7781387,33.83476 17.1715787,33.696603 C16.6646363,33.5811807 9.67370109,32.9848322 7.06327965,32.4680551 C5.52607084,38.6444597 4.04863253,45.1732521 3.3583939,49.9016315 C1.60911048,61.9016158 6.55235253,59.3885576 11.9144309,65.9330894 C17.2765092,72.4798073 18.6822229,69.7612623 28.9397269,67.1677582 C39.1923607,64.573817 38.9430955,56.1777191 38.9430955,56.1777191 C41.8191636,56.4251775 44.944054,61.8583325 44.944054,61.8583325 C44.944054,61.8583325 60.0823731,64.943693 59.4541187,62.9679605 C58.828078,60.9931024 58.3282195,60.8698104 64.1051494,59.1410992 C69.8820793,57.4071415 68.6658602,49.9016315 68.6658602,49.9016315 C73.169457,55.8515636 85.3799068,54.0931224 93.9744625,49.9016315 C102.566805,45.7127639 90.2208749,21.4723322 89.3167906,18.8766421 C84.9057274,6.20860754 82.9660639,1.46536312 76.338622,1.09330108 Z" id="Fill-9" fill="#F777EB"></path>
                <path d="M34,35 C34.0443266,34.5835987 34.0779864,34.245621 34.1227871,33.9132166 C34.1666397,33.5839968 34.2123886,33.2683121 34.2695154,32.9542197 C34.3261681,32.6401274 34.3877988,32.3240446 34.4691037,32.0019904 C34.5105859,31.8411624 34.5504087,31.6759554 34.6061133,31.5107484 C34.6599216,31.343949 34.7099372,31.173965 34.7924274,31 C34.9230369,31.3670382 34.9787415,31.7515924 34.9962825,32.1369427 C35.0097938,32.5214968 34.9870379,32.9100318 34.9187702,33.281449 C34.8514506,33.6520701 34.7459674,34.0091561 34.5963947,34.3184713 C34.4446885,34.6202229 34.2531596,34.9012739 34,35" id="Fill-11" fill="#FCB9F9"></path>
                <path d="M86,43 C86.0028647,42.5859461 86.0088804,42.2495272 86.033803,41.9147009 C86.0584391,41.5834577 86.0916691,41.2629641 86.1423736,40.9448592 C86.1947969,40.6279486 86.2558142,40.3090475 86.346051,39.9877575 C86.4365743,39.6652732 86.5414209,39.3384095 86.7230404,39 C86.882602,39.3563253 86.9533591,39.7237981 86.9860162,40.0920673 C87.0126576,40.4603364 87.0029177,40.8305962 86.9421869,41.1913009 C86.8840343,41.5516074 86.7860629,41.9039514 86.6362411,42.2248432 C86.4832683,42.5381706 86.2876119,42.8459242 86,43" id="Fill-13" fill="#FCB9F9"></path>
                <path d="M32,67 C32,67 33.9944915,66.4093852 35.0850214,62.564012 C36.1746344,58.7151206 37.4714435,52.940904 38.8269276,45.5654748 C40.1874542,38.1878467 44.684801,24.9418906 47.1166046,23.2276563 C49.5484083,21.5107833 46.2066838,30.01379 46.0357012,31.6950414 C45.8702193,33.3784915 37.9394683,59.4381071 37.8496222,62.0798222 C37.7533586,64.7224168 35.260588,66.5329613 32,67" id="Fill-15" fill="#EBADD4"></path>
                <path d="M66.4158474,17 C66.4158474,17 64.0097271,19.0060997 64.0033363,22.4324035 C63.9977444,25.8622879 63.9062767,42.7136151 65.2099913,50.5092953 C66.5145047,58.2996045 65.2611173,60 65.2611173,60 C65.2611173,60 68.192478,59.511679 67.9899708,56.3149891 C67.7874637,53.1169564 67.2602262,17 67.2602262,17 L66.4158474,17 Z" id="Fill-17" fill="#EBADD4"></path>
                <path d="M80,4.12355372 C80,4.12355372 81.424853,5.13002431 83.840793,12.8778829 C86.251879,20.6331646 91.2417327,30.437629 91.7262445,32.4597398 C92.2094325,34.486217 95.4373048,46.5546945 94.7131847,48.1462717 C93.9824456,49.7365389 96.9676208,49.077639 96.9998333,46.3992483 C97.0368998,43.719111 90.8847472,20.6418975 86.7222702,11.5068124 C82.5593519,2.3721639 82.574355,4.14887922 80,4.12355372" id="Fill-19" fill="#EBADD4"></path>
                <path d="M76.5527841,1.03238308 C68.9001196,0.908783178 60.6444936,1.03238308 59.1854426,3.35651074 C59.1854426,3.35651074 56.8043462,3.56550694 53.3559233,2.99065502 C49.9057178,2.41805037 40.3626152,4.68509735 38.6633601,5.67704276 C38.0733223,6.01952686 37.5875662,6.31571717 37.2043091,6.55707408 C36.8058999,6.80831897 31.1800417,5.53231851 31,5.6550195 C32.1234782,5.93008547 30.086422,5.78491177 31.7455688,6.35841532 C34.7630503,7.40159852 41.5007998,9.25604653 41.5007998,9.25604653 C41.5007998,9.25604653 46.1489066,9.88078787 47.7576953,13 C47.7576953,13 48.5647635,9.96933035 51.7671888,8.9364846 C55.2436875,7.81509638 63.7297135,5.17635078 64.9530168,8.18949172 C65.3099807,9.06188232 66.5225884,11.6174789 66.5225884,11.6174789 C66.5225884,11.6174789 66.7512058,7.82588328 68.3167666,6.26313103 C68.6291657,5.95390655 69.1002155,5.76558524 69.5217983,5.67704276 C73.5277266,4.82577651 80.7574714,2.27107885 82.9647651,4.83611396 C85.1733957,7.40159852 84.2045573,1.15373572 76.5527841,1.03238308" id="Fill-21" fill="#EBADD4"></path>
                <path d="M66.0007806,6.47871032 C66.0007806,7.08584692 65.6775956,6.50422316 65.3290398,6.16876381 C64.989071,5.83606261 64.5007806,5.58058946 64,5.59403541 C64.3001561,5.94500932 64.4637002,6.25736921 64.5901639,6.58351982 C64.7166276,6.91035996 64.8095238,7.24133732 64.8934426,7.58334726 C64.9824356,7.9253572 65.0538642,8.28219217 65.1393443,8.6448882 C65.2279469,9.00413654 65.3181109,9.38131282 65.4348165,9.75573096 L65.4590164,9.84330205 C65.479313,9.90604984 65.5327869,9.9594889 65.6061671,9.98465697 C65.7334114,10.0287873 65.8758782,9.97465869 65.9231069,9.86157476 C66.1174863,9.41372102 66.2568306,8.94793934 66.3469945,8.4762966 C66.4375488,8.00706724 66.4644809,7.53370066 66.4894614,7.06757421 C66.5187354,6.60868789 66.5202966,6.13738991 66.7540984,5.74331999 C66.8735363,5.54749172 67.0589383,5.38751933 67.2794692,5.26719527 C67.5003903,5.14790551 67.7490242,5.0648164 68,5 C67.7431694,5.04171694 67.4964871,5.05171521 67.2369243,5.10998102 C66.3177205,5.31201512 66.0007806,6.24150987 66.0007806,6.47871032" id="Fill-23" fill="#440253"></path>
                <path d="M50.5003951,80 C50.2895414,81.4993199 50.1835334,83 50.1065846,84.497053 C50.031728,85.9986399 49.9977869,87.4997733 50.0001116,89.0022669 C50.0001116,90.4993199 50.0354476,92.0004534 50.107282,93.5047605 C50.1853932,94.9977331 50.2902388,96.5020402 50.5003951,98 C50.7084591,96.5020402 50.8137697,94.9977331 50.8925783,93.5047605 C50.9644127,92.0004534 50.9999812,90.4993199 50.9999812,89.0022669 C51.0009111,87.4997733 50.9674348,85.9986399 50.8925783,84.497053 C50.8151645,83 50.7103189,81.4993199 50.5003951,80" id="Fill-25" fill="#440253"></path>
                <path d="M47.6138706,9.09574453 C47.3902913,8.915978 47.1312381,8.7659498 46.8479132,8.64966959 C46.5664553,8.53038214 46.2569917,8.44517682 45.941927,8.39973398 C45.6287292,8.35529355 45.3113307,8.3452694 45,8.39004396 C45.2329145,8.5430794 45.4527597,8.67840551 45.6464662,8.81941197 C45.8429733,8.9567429 46.0147419,9.09641281 46.1697071,9.23708513 C46.3246723,9.37809159 46.460967,9.52210529 46.5762573,9.66645314 C46.6369365,9.73929533 46.6854798,9.81380823 46.7307558,9.88464559 C46.7587615,9.919396 46.7788323,9.95548296 46.7961025,9.99190406 L46.8245751,10.042359 L46.8353106,10.0627414 C46.8353106,10.0680876 46.8460461,10.083458 46.8409117,10.0710949 L47.292738,11 C50.2935548,7.94196419 57,7.00437148 57,7.00437148 C56.1364892,6.9515776 51.0016337,7.36123143 47.6138706,9.09574453" id="Fill-27" fill="#440253"></path>
                <path d="M87.1834981,42.5800475 C86.8934504,43.2143146 86.4988559,43.7820825 85.9839865,44.1524575 C85.7286335,44.3384867 85.4427491,44.4756938 85.1295716,44.5640787 C85.0518554,44.5889107 84.9741393,44.6078503 84.8890216,44.6251064 C84.8034414,44.6398372 84.7562566,44.6516219 84.6396823,44.6655109 C84.4759233,44.6886594 84.3140147,44.6928682 84.1673718,44.6869759 C83.8583576,44.6701406 83.5909771,44.5889107 83.3296103,44.4373937 C83.0788832,44.2812469 82.8415714,44.0522879 82.6394169,43.7799781 C82.2309446,43.226941 81.9547748,42.5278583 81.7378172,41.8123613 C81.5180841,41.0939181 81.3598762,40.3422253 81.2271112,39.574539 C81.1271904,39.9562778 81.0726041,40.3422253 81.0342086,40.7340651 C80.9967383,41.1271676 80.9911872,41.5190075 81.012004,41.9184232 C81.0550254,42.7058908 81.1988928,43.5177695 81.6152293,44.3081833 C81.8261731,44.6974979 82.1157582,45.0851289 82.5293191,45.394897 C82.9419548,45.7101366 83.4859678,45.9142637 84.0179532,45.9744496 C84.2857964,46.008541 84.5490135,46.0060157 84.8034414,45.9816046 C84.890872,45.9752914 85.0560188,45.9576144 85.1744434,45.9374122 C85.3002695,45.9142637 85.4274834,45.8890109 85.5477584,45.8608119 C86.041811,45.7349686 86.515972,45.5123227 86.9207436,45.2235986 C87.3208892,44.9302448 87.647482,44.5750216 87.9102365,44.2042258 C88.16744,43.8283794 88.3649685,43.4369604 88.5171626,43.0362821 C88.8183126,42.2403969 88.9478395,41.4310434 88.9890106,40.6330538 C89.0588626,39.0366536 88.7942576,37.4680316 88.2368294,36 C88.1776171,37.5522077 88.1008261,39.0665361 87.811241,40.5177325 C87.6687614,41.2374383 87.4763214,41.943676 87.1834981,42.5800475 Z" id="Fill-29" fill="#440253"></path>
                <path d="M34.8843916,29.3504205 C34.7441372,30.1179048 34.5868082,30.8738768 34.4014284,31.6152665 C34.2205205,32.3578076 34.021725,33.0896038 33.7798368,33.7926194 C33.5432336,34.4983211 33.2566266,35.1760097 32.9159506,35.77388 C32.5744614,36.3694477 32.1516653,36.8798248 31.7044771,37.11007 C31.5930866,37.1680151 31.4764111,37.2152154 31.3621749,37.2420773 C31.3483527,37.2447635 31.3483527,37.2478335 31.3239606,37.2516709 L31.2861529,37.257427 L31.2613543,37.2654856 C31.2656906,37.2654856 31.2318127,37.2702184 31.1597206,37.2796841 C31.0877639,37.2911963 31.01784,37.2965687 30.9511683,37.3000224 C30.6832619,37.3057785 30.4478783,37.2670206 30.2120882,37.1442231 C29.9750784,37.025263 29.7445732,36.8099837 29.5388667,36.5428992 C29.331534,36.2731285 29.1514391,35.95232 28.9961428,35.6119408 C28.6859568,34.9258099 28.4554517,34.1698379 28.2509647,33.3816315 C28.1294108,33.7749672 28.0578607,34.1790477 28.0245249,34.5904192 C27.9879367,35.0006396 27.9924086,35.4185347 28.0371274,35.8421861 C28.0903835,36.2639186 28.1798211,36.6952448 28.3635748,37.123501 C28.546922,37.5525247 28.8249917,37.9884558 29.2587642,38.3430335 C29.4754473,38.5161012 29.7274988,38.6676793 29.9982509,38.7758946 C30.2710357,38.8848774 30.5604884,38.9478111 30.8389647,38.9792779 C30.9808453,38.9927089 31.1219129,39 31.2593216,39 C31.3284325,38.998465 31.3951042,38.998465 31.4613693,38.9927089 L31.5605638,38.9869528 L31.6796785,38.9712193 C31.9752292,38.9324614 32.2565512,38.8549455 32.5256772,38.7451952 C33.0606769,38.5260785 33.4916037,38.1864667 33.8416301,37.8326565 C34.1940957,37.4734738 34.467287,37.0855105 34.6961661,36.6929423 C35.152298,35.904736 35.4295547,35.087749 35.6324155,34.272297 C35.8324306,33.4537751 35.9466669,32.6344856 35.9865073,31.8144287 C36.0206562,30.993988 35.9917922,30.1758498 35.8791821,29.3661539 C35.7645393,28.5591443 35.5872902,27.7536695 35.2514925,27 C35.1466065,27.8062422 35.0270853,28.5825525 34.8843916,29.3504205 Z" id="Fill-31" fill="#440253"></path>
                <path d="M95.1772045,47.5758037 C93.6052493,48.8596674 91.5696619,49.7990269 88.1488906,50.8177872 C78.2965946,53.7599566 76.776496,52.6032211 75.9577785,51.9805971 C75.7986933,51.8625806 75.6242269,51.7250393 75.4128457,51.6039855 C74.1467561,50.0545847 73.9090072,44.5229938 73.7806843,43.8964649 C73.1645587,40.9156798 71.8215632,34.0173533 71.2695991,30.3076426 C70.5945857,25.7891715 69.9920834,23.0248946 69.5025229,21.3297087 L69.5174646,21.3522707 C67.5073659,10.3060103 65.1922807,17.6022087 65.2072224,21.2281798 C65.1922807,21.5128079 65.1755812,21.8017748 65.1650341,22.0885723 C65.0960386,24.0896467 65.1755812,26.0820434 65.2788547,28.0705351 C65.4766126,32.0557624 65.8453211,36.0188616 66.2544601,39.9693781 C66.4574915,41.9448533 66.6635991,43.9116508 66.8323525,45.8767128 C66.9176081,46.858593 66.9923166,47.840907 67.0534018,48.8223533 L67.143052,50.297126 C67.1685408,50.7861136 67.2006215,51.2850806 67.2138054,51.7545434 C67.2340206,52.7073533 67.2221552,53.6553905 67.0889982,54.5396467 C66.9549623,55.4208657 66.6846933,56.2443781 66.2447919,56.7663409 C66.0255004,57.0292748 65.7613839,57.2249566 65.4278323,57.3828905 C65.090765,57.5447293 64.6825049,57.6562376 64.2276619,57.7577665 C63.7684242,57.8566921 63.2669982,57.9521467 62.7247022,58.089688 C62.1938323,58.2254938 61.6506574,58.4146674 61.1553839,58.6216302 C60.6623076,58.8329318 60.2307561,59.0351219 59.7974466,59.2052045 C59.3663345,59.3713822 58.9273121,59.5180351 58.4729085,59.6551426 C57.5662987,59.9206798 56.6131058,60.1263409 55.6502448,60.3024979 C54.6860655,60.4773533 53.7280386,60.6218368 52.7897874,60.680845 C52.5309444,60.6995021 52.276496,60.7047087 52.0264422,60.7047087 C50.5494108,60.5190062 49.7386036,59.7371467 49.2855184,58.8116715 C49.2534377,58.5951632 49.2231148,58.3573946 49.1813659,58.1044401 L49.1440117,57.8944401 L49.1075363,57.7130764 L49.0433749,57.3603285 C48.9576798,56.8917335 48.8873659,56.4148946 48.8205677,55.9302459 C48.5691955,54.0046674 48.4342807,52.0413409 48.3406753,50.0806178 C48.2562987,48.1224979 48.2316888,46.1565682 48.349904,44.2132004 C48.4808637,42.2563822 48.6395094,40.2687583 48.7788188,38.2924153 C48.9238413,36.3121674 49.0323883,34.3267128 49.0912762,32.338655 C49.1145677,31.3437583 49.1242359,30.3453905 49.0978682,29.3517955 C49.0688637,28.5868574 49.0315094,27.8206178 48.9229623,27.0639236 C48.8759399,25.4958657 48.731357,24.0835723 48.4619668,22.9389855 C48.2637695,22.0920434 47.6309444,18.6053492 45.9355004,24.4436963 C44.2378592,30.2820434 43.6806215,29.6494401 40.412783,45.4888202 C39.9236619,47.8443781 38.9278413,52.5290269 38.1860296,55.6660103 C36.7441552,61.7746674 35.2600924,63.9766302 32.3069085,65.214936 L32.0485049,65.2361963 L31.7777964,65.2604938 C31.5954197,65.274812 31.4143614,65.2978079 31.2341821,65.3168988 C30.8711865,65.3576839 30.5152224,65.4188616 30.1623345,65.4765682 C28.7375991,65.7364649 27.37307,66.0978905 26.0379848,66.4844814 L22.0551417,67.6425186 L20.0665767,68.1931178 L19.0689982,68.4590888 L18.8189444,68.5220021 C18.7358861,68.5467335 18.6493121,68.5684277 18.5794377,68.5862169 C18.4339758,68.6191921 18.2889534,68.649564 18.1461283,68.6690888 C17.5748278,68.7528285 17.053626,68.7077045 16.6932673,68.5046467 C16.5073749,68.4039855 16.3522448,68.2608037 16.2138143,68.0698946 C16.0753839,67.8794194 15.9549713,67.6425186 15.8662,67.3774153 C15.6825049,66.8441715 15.6042807,66.2167748 15.5814287,65.5837376 C15.5572583,64.9459277 15.5919758,64.2864236 15.653061,63.6277872 C15.7703973,62.3022707 16.0217695,60.9776219 16.2762179,59.627374 C16.3399399,59.289812 16.4041013,58.9470434 16.4577157,58.5916921 L16.6220744,57.5751012 L16.9402448,55.5375806 L17.5735094,51.4647087 C17.6363525,51.0455764 17.7013928,50.627312 17.7686305,50.2094814 C18.7811507,45.6649773 19.7523614,41.5101012 20.8075094,37.134812 L20.8083883,37.1391508 C20.8083883,37.1391508 20.8097067,37.1283037 20.8110251,37.1191921 C20.9547291,36.5217335 21.1006305,35.9190682 21.2482897,35.3116302 C21.4420924,34.8148326 21.7242269,34.554936 22.086783,34.4247707 C22.0872224,34.4243368 23.4047291,34.0251632 24.0555722,33.7387996 C26.7310161,32.5621054 26.4282269,29.4802252 27.3682359,29.2099153 C28.6426753,28.8441508 32.1403525,30.6877252 35.7307561,26.6395847 C38.1042897,23.9638202 37.9113659,19.3646467 37.7927112,18.6890888 C37.6072583,17.6373533 38.7331596,17.6256384 39.3215991,17.5913616 C40.3995991,17.5288822 42.0317605,16.5279112 43.0741641,14.9841508 C43.9073839,13.7506178 44.4228726,11.1026219 44.1051417,10.7529112 C43.5795453,10.1736756 37.5967112,7.87712603 37.5321103,7.85716736 C37.4683883,7.83677479 37.5971507,7.61375826 37.7140475,7.53305579 C38.1122,7.2644814 38.5758323,7.03972934 39.0768188,6.85402686 C40.0809892,6.48739463 41.1945857,6.26003926 42.3578413,6.09082438 L43.2451148,5.95632025 C43.5452673,5.91293182 43.8814556,5.85392355 44.1706215,5.79838636 C44.7599399,5.68774587 45.3545318,5.57970868 45.946487,5.46342769 C47.1312762,5.22913017 48.3129892,4.98962603 49.4841552,4.76877893 C50.650487,4.54446074 51.8194556,4.3162376 52.9141552,4.29324174 C53.1905767,4.29020455 53.4542538,4.30105165 53.7192493,4.33229132 L54.6060834,4.44813843 L56.3823883,4.6893781 C56.9712673,4.77441942 57.5662987,4.85729132 58.1538592,4.95014256 C58.7427381,5.03995661 59.3302987,5.14018388 59.9112673,5.25472934 C60.4979489,5.36103099 61.0767202,5.49510124 61.6431865,5.65260124 C61.9279578,5.73634091 62.2100924,5.82615496 62.4808009,5.94200207 C62.7471148,6.06132025 63.0143076,6.19408884 63.2155812,6.41840702 C63.0925318,6.14115496 62.84907,5.92334504 62.6034108,5.73634091 C62.3542359,5.54933678 62.087922,5.39096901 61.8145767,5.24735331 C61.2700834,4.9544814 60.6992224,4.72582438 60.1257247,4.50671281 C59.9429085,4.44249793 59.7627291,4.38479132 59.5790341,4.32231198 C59.7811865,4.07890289 60.1890072,3.7691095 61.0683704,3.44109298 C63.361922,2.58894421 67.3935453,2.16460537 73.0850161,2.17632025 C80.2671417,2.19367562 81.7740565,4.64034917 83.0023525,7.8393781 C83.122765,8.15481198 83.3736978,8.76875826 83.7560296,9.70334504 C85.331061,13.580969 89.03133,22.6621674 91.8474018,31.052188 C93.4175991,35.7346674 94.4951596,39.5407004 95.0436081,42.373531 C95.9282448,46.9058864 95.1899489,47.571031 95.1772045,47.5758037 M60.311617,71.7232004 C60.4671865,72.5614649 60.599904,73.4032004 60.704496,74.2466715 C60.813043,75.0892748 60.883357,75.9401219 60.963339,76.8044194 C61.1109982,78.5269401 61.2353659,80.2494607 61.3311686,81.9745847 C61.4238951,83.6966715 61.4836619,85.4183244 61.4893749,87.1347707 C61.4946484,88.8559897 61.4524601,90.5702665 61.315348,92.2641508 C61.245913,93.1123946 61.1505498,93.9528285 61.0138771,94.7767748 C60.8829175,95.6072293 60.7071327,96.422064 60.4658682,97.1900393 C60.3955543,97.4104525 60.3160117,97.629564 60.2307561,97.8456384 C58.997626,99.8289236 58.0611327,92.1452665 58.0611327,92.1452665 C57.9613749,93.8855764 57.7768009,99.0028079 56.5129085,100.852457 C56.4355632,100.939667 56.3503076,101.024275 56.2615363,101.104543 C55.9275453,101.418242 55.5271955,101.684647 55.0855363,101.897684 C54.1987022,102.318118 53.1681641,102.522911 52.1121372,102.581052 C51.5834646,102.606651 51.0451238,102.602746 50.5076619,102.563262 C50.2373928,102.546341 49.9622897,102.52161 49.6928996,102.489936 C49.4274646,102.459564 49.146209,102.424853 48.9031865,102.380597 C47.9012135,102.197498 46.984496,101.719357 46.2941013,100.962663 C45.5997516,100.209006 45.1290879,99.2305971 44.8148726,98.1979525 C44.4949444,97.1644401 44.3239937,96.0784277 44.223357,94.9763616 C44.0269175,92.7813409 44.1112942,90.5433657 44.2760924,88.3279525 L44.263348,88.3279525 C44.2044601,88.7206178 44.14733,89.1132831 44.0985498,89.5055145 C44.6039309,82.9742541 46.1565498,73.7806798 46.9884511,69.1346467 C47.0991955,68.8153079 47.2481731,68.5176632 47.4494466,68.4373946 C48.2492673,68.1232624 50.408783,67.3444401 51.6937695,67.0702252 C52.1534466,66.9730351 52.8508726,70.6085517 52.9642538,71.7566095 C52.9642538,71.7566095 53.4423883,67.8642335 53.9117336,66.6602045 C54.0492852,66.2979112 54.8038413,66.0553698 55.1655184,65.9655558 C57.3522807,65.4010723 57.7680117,65.0396467 58.0149892,66.2575599 C58.0149892,66.2575599 58.605626,64.6782211 58.8350251,65.214936 C58.8556798,65.3125599 58.8758951,65.4101839 58.8983076,65.5082417 C58.8991865,65.5169194 58.8991865,65.5234277 58.8991865,65.533407 C58.9273121,65.7841921 58.9312673,65.7720434 58.9185229,65.5967541 C59.0011417,65.9655558 59.0872762,66.3239442 59.1747291,66.6866715 C59.5851865,68.3861963 60.0009175,70.048407 60.311617,71.7232004 M13.6539489,48.7590062 C13.4728906,49.5282831 13.2241552,50.2914855 12.8545677,51.0390682 C12.6647202,51.4100393 12.4542179,51.7844814 12.1738413,52.1372293 C11.894783,52.487374 11.5638682,52.8349153 11.1248457,53.1078285 C10.9059937,53.2458037 10.666487,53.3607831 10.4041283,53.4462583 C10.1400117,53.5308657 9.85831659,53.5660103 9.58321345,53.5707831 C9.30679193,53.5707831 9.03872018,53.5308657 8.79218206,53.4644814 C8.50169776,53.3816095 8.2648278,53.267064 8.04333901,53.1264855 C7.60387713,52.8522707 7.2791148,52.490845 7.01543767,52.1194401 C6.75703408,51.7380558 6.57246009,51.3371467 6.43578744,50.9275599 C6.1734287,50.1031798 6.12333004,49.2371467 6.27626278,48.4275186 C6.42787713,47.6204938 6.7855991,46.8664029 7.30372466,46.2802252 C7.10904305,47.0317128 7.03785022,47.7693161 7.10904305,48.4730764 C7.17715964,49.1746674 7.37843318,49.8415475 7.6895722,50.4186136 C7.99192197,50.9995847 8.43709686,51.4994194 8.88930314,51.7241715 C8.99565291,51.7779731 9.11167085,51.8174566 9.19780538,51.8291715 C9.3186574,51.8517335 9.43423587,51.8612789 9.54541973,51.8517335 C9.75592197,51.8335103 9.95104305,51.7666921 10.1624242,51.6300186 C10.5869444,51.3562376 10.9995991,50.829936 11.3436978,50.2402872 C11.6952673,49.6528079 11.9958592,48.9954731 12.2885408,48.3277252 C12.8642359,46.9757417 13.3603883,45.5552045 13.9466305,44.1108037 C13.9971686,44.4947913 14.0226574,44.8857211 14.0296888,45.2762169 C14.032765,45.665845 14.021339,46.052436 13.9971686,46.4398946 C13.9466305,47.2156798 13.8323704,47.9879938 13.6539489,48.7590062 Z M9.09541076,29.1804112 C10.8857785,28.9469814 12.8321552,28.1013409 13.7699668,26.7858037 C14.430478,25.8594607 15.3225857,24.1391095 15.5735184,23.7668368 C15.9910072,23.1494194 16.0745049,23.154626 18.4265049,23.1242541 C20.5807471,23.1129731 22.7068637,22.1454112 24.7042179,19.558593 C25.6640027,18.3150806 26.1579578,16.7543988 26.3724152,15.1442541 C26.4277874,14.7537583 26.629061,13.8838202 26.7424422,13.5432211 C27.0900565,12.5027665 28.5728009,13.3544814 28.5728009,13.3544814 C37.3602807,17.0941302 35.9469713,17.0576839 35.3137067,22.400969 C34.7582269,27.0942955 30.6422269,28.7578079 26.2449713,27.3003905 C25.1893839,26.8903698 16.4977067,23.5694194 16.535061,23.7069607 C16.5623076,23.8084897 21.3449713,25.6880764 24.518765,27.414936 C25.5268906,27.9633657 23.8472673,33.2012169 20.1984152,33.2697707 C20.1685318,33.2732417 18.2784063,33.1717128 17.128774,32.8237376 C15.3023704,32.2714029 9.25889058,29.7752665 8.88798475,29.5578905 C8.51751839,29.3405145 9.07519552,29.1882211 9.09541076,29.1804112 M30.2871417,8.07671281 C30.4304063,7.48272521 30.0322538,7.15514256 32.8122897,7.90966736 C34.9370879,8.48673347 39.8964152,10.4153492 41.0820834,11.2787789 C41.8115901,11.8102872 41.7175453,14.9806798 39.3716978,15.831093 C36.4374108,16.8949773 27.6459758,13.0416508 27.2803435,12.1960103 C27.0483076,11.6592955 29.453043,11.5356384 30.2871417,8.07671281 M85.785904,8.89284917 C85.4251058,8.00555579 85.1614287,7.36601033 85.0533211,7.07313843 C83.6848368,3.51181612 81.6338682,0.0303285124 73.0902897,0.0125392562 L72.8362807,0.0125392562 C61.0072852,0.0125392562 58.2320834,1.90036983 57.4243525,3.68016322 C57.1536439,3.61030785 56.888209,3.54479132 56.6188188,3.48144421 C56.0220296,3.34303512 55.4313928,3.21026653 54.8354825,3.09745661 C54.5384063,3.0341095 54.2492404,2.97683678 53.942496,2.92303512 C53.6137785,2.8575186 53.2745139,2.82237397 52.9475543,2.80588636 C52.2874825,2.76987397 51.6524601,2.80328306 51.0341372,2.85404752 C50.4153749,2.9069814 49.8045229,2.97510124 49.2007022,3.0536343 C47.9943794,3.21417149 46.8069534,3.3933657 45.6177695,3.56388223 L43.8339937,3.82464669 C43.5246126,3.86933678 43.271043,3.90274587 42.9717695,3.93441942 L42.0691148,4.03291116 C40.8487291,4.18563843 39.5791238,4.37958471 38.3174287,4.83603099 C37.6889982,5.06208471 37.0579309,5.35322107 36.4655363,5.76975 C36.0643076,6.04396488 35.6802179,6.3858657 35.3558951,6.78460537 C35.298765,6.7616095 35.2398771,6.74295248 35.1831865,6.72212603 C34.6843973,6.53685744 34.163635,6.35679545 33.6107919,6.21534917 C33.05707,6.07216736 32.4765408,5.97584504 31.8990879,5.93679545 C31.0865229,5.88255992 29.7329803,5.89297314 29.1893659,6.00101033 C29.1757426,6.00404752 29.1612404,6.00665083 29.148496,6.0101219 C29.0540117,6.03138223 28.9863345,6.05654752 28.9617247,6.08518388 L28.9626036,6.08518388 C28.1197157,6.55334504 28.4686484,8.46547314 27.9821641,9.42652686 C27.7000296,9.98276653 26.9006484,11.1963409 25.792765,11.3703285 C24.045904,11.6449773 25.0456798,12.7539855 23.6385229,17.5570847 C22.9955901,20.2732004 18.9824242,22.0169814 17.4188188,21.9827045 C16.6189982,21.9653492 15.2386484,21.8777045 14.6040655,22.0169814 C13.6658143,22.2230764 12.7517336,25.2572293 11.8587471,26.5797087 C11.4878413,27.1290062 9.4223704,28.622436 7.46940179,28.2597087 C6.36854978,28.0553492 6.10794888,32.5152459 5.3063704,35.5975599 C5.30549148,35.6001632 5.30680987,35.6018988 5.3063704,35.6045021 C4.62432556,38.1596467 3.94535695,40.716093 3.28264843,43.2781798 C2.76672018,45.2762169 2.25782332,47.2759897 1.77397578,49.2857417 C1.28705202,51.2963616 0.825177578,53.3152252 0.440208969,55.3640269 L0.298702242,56.1337376 C0.252558744,56.4018781 0.207733632,56.6639442 0.17213722,56.9316508 C0.0974286996,57.4644607 0.0433748879,58.0085517 0.0156887892,58.5565475 C-0.0335309417,59.6551426 0.0143704036,60.8092748 0.421312108,61.978593 C0.627859193,62.5556591 0.942953363,63.1340269 1.37582332,63.6230145 C1.80517758,64.1120021 2.33736592,64.4998946 2.87614619,64.7832211 C3.9563435,65.3520434 5.03873812,65.5798326 5.91590404,65.9095847 C6.13959013,65.9928905 6.33954529,66.0757624 6.52543767,66.174688 L7.19737489,66.5339442 L8.56673812,67.2784897 C9.48741076,67.7765888 10.4195094,68.2686136 11.375339,68.728531 C12.3294108,69.18975 13.3028188,69.628407 14.3351148,69.9980764 C14.8501641,70.183345 15.3950969,70.3252252 15.9808996,70.3781591 C16.2138143,70.4020227 16.4577157,70.4072293 16.7038143,70.3877045 C16.8396081,70.4206798 16.9736439,70.4506178 17.1072404,70.4653698 C17.549339,70.5304525 17.975617,70.5187376 18.379043,70.4740475 C18.5803166,70.4527872 18.7789534,70.4172087 18.9731955,70.3803285 L19.5005498,70.277064 L20.5310879,70.0614236 C21.2148906,69.9139029 21.9017695,69.7581384 22.5811776,69.5893574 C23.9435094,69.2604731 25.2944152,68.8903698 26.6299399,68.518531 C27.9676619,68.1492955 29.2781372,67.7592335 30.5789444,67.4433657 C30.9041462,67.3648326 31.2311058,67.2932417 31.5527919,67.2233864 C31.7175901,67.1869401 31.880191,67.1548326 32.0427919,67.1283657 L32.2862538,67.0841095 L32.5455363,67.0376839 C33.3286574,66.9101219 34.0849713,66.6458864 34.7784422,66.261031 C35.4697157,65.8796467 36.0774915,65.3746054 36.584191,64.8044814 C37.0869354,64.239564 37.4903614,63.6121674 37.8243525,62.9678492 C38.1561462,62.3213616 38.4198233,61.6536136 38.6426305,60.9823946 C38.861922,60.3103079 39.0319937,59.627374 39.1831686,58.9470434 C39.2451327,58.6650186 39.2987471,58.389936 39.3475274,58.1044401 C39.4231148,58.1230971 39.5088099,58.149564 39.593626,58.1790682 C39.7918233,58.254564 40.0071596,58.3513202 40.222496,58.4515475 C40.6562448,58.6628492 41.1088906,58.9040888 41.5562628,59.1487996 C42.0638413,59.4260517 42.5749354,59.7050393 43.0904242,59.9775186 C43.1915004,60.7880145 43.2666484,61.6158657 43.3062,62.4198533 C43.3330072,62.9005971 43.3374018,63.3644194 43.3163076,63.8282417 C43.2956529,64.3024773 43.2591776,64.791031 43.2165498,65.2791508 C43.0403256,67.2364029 42.7797247,69.2170847 42.5432942,71.1990682 L41.8098323,77.1532624 C41.577357,79.1443574 41.3356529,81.1337169 41.138774,83.1330558 C40.9405767,85.1315269 40.8030251,87.1347707 40.6338323,89.1488616 C39.593626,101.397415 43.9359489,103.600246 44.9897785,103.911775 C62.773922,109.141816 64.2474377,94.1966715 63.9248726,87.1391095 C63.3118233,73.5620021 60.1182538,61.3498946 60.1182538,61.3498946 C60.2747022,61.2943574 60.4320296,61.2336136 60.5889175,61.1746054 C61.089904,60.9823946 61.5671596,60.759812 61.9934377,60.5819194 C62.4249892,60.4061963 62.8306126,60.2660517 63.269635,60.1571467 C63.7025049,60.0426012 64.185913,59.9632004 64.7115094,59.8412789 C65.2309534,59.7202252 65.7956619,59.5653285 66.3643256,59.2906798 C66.9325498,59.0221054 67.4862717,58.6008037 67.8993659,58.0905558 C68.3137785,57.5811756 68.5910789,57.017126 68.774774,56.4604525 C68.9602269,55.9055145 69.0643794,55.3527459 69.1320565,54.8129938 C69.2401641,53.9191921 69.2524691,53.0483864 69.2111596,52.1923326 C70.0509713,53.5555971 71.2129085,53.6753492 72.9408726,54.1074979 C73.72707,54.3053492 76.2869354,54.7097293 76.7931955,54.7097293 C77.3047291,54.8216715 77.9089892,54.8880558 78.6472852,54.8880558 C80.7228637,54.8880558 83.831617,54.3682624 88.7817157,52.8895847 C92.5004422,51.7788409 94.7614735,50.724936 96.5760117,49.2453905 C98.6691686,47.5376219 99.0268906,41.4094401 85.785904,8.89284917" id="Fill-33" fill="#440253"></path>
            </g>
        </g>
    </g>
</svg>